<mxfile host="app.diagrams.net" agent="Mozilla/5.0 (Macintosh; Intel Mac OS X 10_15_7) AppleWebKit/605.1.15 (KHTML, like Gecko) Version/18.6 Safari/605.1.15" version="28.1.1">
  <diagram name="Página-1" id="osFBbAPyMdEgR65ZEtdR">
    <mxGraphModel dx="1426" dy="818" grid="1" gridSize="10" guides="1" tooltips="1" connect="1" arrows="1" fold="1" page="1" pageScale="1" pageWidth="1654" pageHeight="2336" math="0" shadow="0">
      <root>
        <mxCell id="0" />
        <mxCell id="1" parent="0" />
        <mxCell id="ET7AaDw2ST4JlTZtW3ST-9" value="Administrador" style="swimlane;fontStyle=1;align=center;verticalAlign=top;childLayout=stackLayout;horizontal=1;startSize=26;horizontalStack=0;resizeParent=1;resizeParentMax=0;resizeLast=0;collapsible=1;marginBottom=0;whiteSpace=wrap;html=1;" parent="1" vertex="1">
          <mxGeometry x="950" y="300" width="160" height="170" as="geometry" />
        </mxCell>
        <mxCell id="ET7AaDw2ST4JlTZtW3ST-10" value="&amp;nbsp;" style="text;strokeColor=none;fillColor=none;align=left;verticalAlign=top;spacingLeft=4;spacingRight=4;overflow=hidden;rotatable=0;points=[[0,0.5],[1,0.5]];portConstraint=eastwest;whiteSpace=wrap;html=1;" parent="ET7AaDw2ST4JlTZtW3ST-9" vertex="1">
          <mxGeometry y="26" width="160" height="44" as="geometry" />
        </mxCell>
        <mxCell id="ET7AaDw2ST4JlTZtW3ST-11" value="" style="line;strokeWidth=1;fillColor=none;align=left;verticalAlign=middle;spacingTop=-1;spacingLeft=3;spacingRight=3;rotatable=0;labelPosition=right;points=[];portConstraint=eastwest;strokeColor=inherit;" parent="ET7AaDw2ST4JlTZtW3ST-9" vertex="1">
          <mxGeometry y="70" width="160" height="8" as="geometry" />
        </mxCell>
        <mxCell id="ET7AaDw2ST4JlTZtW3ST-12" value="+gestionarReservas()&lt;div&gt;+gestionarClientes()&lt;/div&gt;&lt;div&gt;+gestionarServicios()&lt;/div&gt;&lt;div&gt;+gestionarMascotas()&lt;/div&gt;&lt;div&gt;&lt;br&gt;&lt;/div&gt;" style="text;strokeColor=none;fillColor=none;align=left;verticalAlign=top;spacingLeft=4;spacingRight=4;overflow=hidden;rotatable=0;points=[[0,0.5],[1,0.5]];portConstraint=eastwest;whiteSpace=wrap;html=1;" parent="ET7AaDw2ST4JlTZtW3ST-9" vertex="1">
          <mxGeometry y="78" width="160" height="92" as="geometry" />
        </mxCell>
        <mxCell id="ET7AaDw2ST4JlTZtW3ST-13" value="&lt;div&gt;Habitación&lt;/div&gt;" style="swimlane;fontStyle=1;align=center;verticalAlign=top;childLayout=stackLayout;horizontal=1;startSize=26;horizontalStack=0;resizeParent=1;resizeParentMax=0;resizeLast=0;collapsible=1;marginBottom=0;whiteSpace=wrap;html=1;" parent="1" vertex="1">
          <mxGeometry x="980" y="830" width="160" height="168" as="geometry" />
        </mxCell>
        <mxCell id="ET7AaDw2ST4JlTZtW3ST-14" value="-id : long&lt;div&gt;-codigo : string&lt;/div&gt;&lt;div&gt;-tipo : string&lt;/div&gt;&lt;div&gt;-descripcion : string&lt;/div&gt;&lt;div&gt;-activo : boolean&lt;/div&gt;" style="text;strokeColor=none;fillColor=none;align=left;verticalAlign=top;spacingLeft=4;spacingRight=4;overflow=hidden;rotatable=0;points=[[0,0.5],[1,0.5]];portConstraint=eastwest;whiteSpace=wrap;html=1;" parent="ET7AaDw2ST4JlTZtW3ST-13" vertex="1">
          <mxGeometry y="26" width="160" height="84" as="geometry" />
        </mxCell>
        <mxCell id="ET7AaDw2ST4JlTZtW3ST-15" value="" style="line;strokeWidth=1;fillColor=none;align=left;verticalAlign=middle;spacingTop=-1;spacingLeft=3;spacingRight=3;rotatable=0;labelPosition=right;points=[];portConstraint=eastwest;strokeColor=inherit;" parent="ET7AaDw2ST4JlTZtW3ST-13" vertex="1">
          <mxGeometry y="110" width="160" height="8" as="geometry" />
        </mxCell>
        <mxCell id="ET7AaDw2ST4JlTZtW3ST-16" value="+estaActivaI()&lt;div&gt;+usada()&lt;/div&gt;" style="text;strokeColor=none;fillColor=none;align=left;verticalAlign=top;spacingLeft=4;spacingRight=4;overflow=hidden;rotatable=0;points=[[0,0.5],[1,0.5]];portConstraint=eastwest;whiteSpace=wrap;html=1;" parent="ET7AaDw2ST4JlTZtW3ST-13" vertex="1">
          <mxGeometry y="118" width="160" height="50" as="geometry" />
        </mxCell>
        <mxCell id="ET7AaDw2ST4JlTZtW3ST-25" value="&lt;div&gt;Servicio&lt;/div&gt;" style="swimlane;fontStyle=1;align=center;verticalAlign=top;childLayout=stackLayout;horizontal=1;startSize=26;horizontalStack=0;resizeParent=1;resizeParentMax=0;resizeLast=0;collapsible=1;marginBottom=0;whiteSpace=wrap;html=1;" parent="1" vertex="1">
          <mxGeometry x="950" y="558" width="160" height="210" as="geometry" />
        </mxCell>
        <mxCell id="ET7AaDw2ST4JlTZtW3ST-26" value="-id : long&lt;div&gt;-nombre : string&lt;/div&gt;&lt;div&gt;-tipo : tipoServicio {}&lt;/div&gt;&lt;div&gt;-precioServicio : int&lt;/div&gt;" style="text;strokeColor=none;fillColor=none;align=left;verticalAlign=top;spacingLeft=4;spacingRight=4;overflow=hidden;rotatable=0;points=[[0,0.5],[1,0.5]];portConstraint=eastwest;whiteSpace=wrap;html=1;" parent="ET7AaDw2ST4JlTZtW3ST-25" vertex="1">
          <mxGeometry y="26" width="160" height="84" as="geometry" />
        </mxCell>
        <mxCell id="ET7AaDw2ST4JlTZtW3ST-27" value="" style="line;strokeWidth=1;fillColor=none;align=left;verticalAlign=middle;spacingTop=-1;spacingLeft=3;spacingRight=3;rotatable=0;labelPosition=right;points=[];portConstraint=eastwest;strokeColor=inherit;" parent="ET7AaDw2ST4JlTZtW3ST-25" vertex="1">
          <mxGeometry y="110" width="160" height="8" as="geometry" />
        </mxCell>
        <mxCell id="ET7AaDw2ST4JlTZtW3ST-28" value="&lt;div&gt;+agregarServicio()&lt;/div&gt;&lt;div&gt;+eliminarServicio()&lt;/div&gt;&lt;div&gt;+modificarServicio()&lt;/div&gt;" style="text;strokeColor=none;fillColor=none;align=left;verticalAlign=top;spacingLeft=4;spacingRight=4;overflow=hidden;rotatable=0;points=[[0,0.5],[1,0.5]];portConstraint=eastwest;whiteSpace=wrap;html=1;" parent="ET7AaDw2ST4JlTZtW3ST-25" vertex="1">
          <mxGeometry y="118" width="160" height="92" as="geometry" />
        </mxCell>
        <mxCell id="ET7AaDw2ST4JlTZtW3ST-35" value="Reserva" style="swimlane;fontStyle=1;align=center;verticalAlign=top;childLayout=stackLayout;horizontal=1;startSize=26;horizontalStack=0;resizeParent=1;resizeParentMax=0;resizeLast=0;collapsible=1;marginBottom=0;whiteSpace=wrap;html=1;" parent="1" vertex="1">
          <mxGeometry x="640" y="780" width="160" height="260" as="geometry" />
        </mxCell>
        <mxCell id="ET7AaDw2ST4JlTZtW3ST-36" value="-id : long&lt;div&gt;-cliente : string&lt;/div&gt;&lt;div&gt;-fechaInicio : date&lt;/div&gt;&lt;div&gt;-fechaFin : date&lt;/div&gt;&lt;div&gt;-estado : estadoReserva {}&lt;/div&gt;&lt;div&gt;-total : int&lt;/div&gt;&lt;div&gt;-notas : string&lt;/div&gt;" style="text;strokeColor=none;fillColor=none;align=left;verticalAlign=top;spacingLeft=4;spacingRight=4;overflow=hidden;rotatable=0;points=[[0,0.5],[1,0.5]];portConstraint=eastwest;whiteSpace=wrap;html=1;" parent="ET7AaDw2ST4JlTZtW3ST-35" vertex="1">
          <mxGeometry y="26" width="160" height="114" as="geometry" />
        </mxCell>
        <mxCell id="ET7AaDw2ST4JlTZtW3ST-37" value="" style="line;strokeWidth=1;fillColor=none;align=left;verticalAlign=middle;spacingTop=-1;spacingLeft=3;spacingRight=3;rotatable=0;labelPosition=right;points=[];portConstraint=eastwest;strokeColor=inherit;" parent="ET7AaDw2ST4JlTZtW3ST-35" vertex="1">
          <mxGeometry y="140" width="160" height="8" as="geometry" />
        </mxCell>
        <mxCell id="ET7AaDw2ST4JlTZtW3ST-38" value="&lt;div&gt;+confirmar()&lt;/div&gt;&lt;div&gt;+iniciar()&lt;/div&gt;&lt;div&gt;+finalizar()&lt;/div&gt;&lt;div&gt;+cancelar()&lt;/div&gt;+calcularTotal()&lt;div&gt;+agregarServicio()&lt;/div&gt;" style="text;strokeColor=none;fillColor=none;align=left;verticalAlign=top;spacingLeft=4;spacingRight=4;overflow=hidden;rotatable=0;points=[[0,0.5],[1,0.5]];portConstraint=eastwest;whiteSpace=wrap;html=1;" parent="ET7AaDw2ST4JlTZtW3ST-35" vertex="1">
          <mxGeometry y="148" width="160" height="112" as="geometry" />
        </mxCell>
        <mxCell id="ET7AaDw2ST4JlTZtW3ST-39" value="&lt;i&gt;Usuario&lt;/i&gt;" style="swimlane;fontStyle=1;align=center;verticalAlign=top;childLayout=stackLayout;horizontal=1;startSize=26;horizontalStack=0;resizeParent=1;resizeParentMax=0;resizeLast=0;collapsible=1;marginBottom=0;whiteSpace=wrap;html=1;" parent="1" vertex="1">
          <mxGeometry x="710" y="270" width="160" height="200" as="geometry" />
        </mxCell>
        <mxCell id="ET7AaDw2ST4JlTZtW3ST-40" value="&lt;div&gt;-id : long&lt;/div&gt;&lt;div&gt;-nombre : string&lt;/div&gt;&lt;div&gt;-contrasena : string&lt;/div&gt;&lt;div&gt;-estado: boolean&lt;/div&gt;&lt;div&gt;-telefono : string&lt;/div&gt;&lt;div&gt;-email : string&lt;/div&gt;&lt;div&gt;&lt;br&gt;&lt;/div&gt;" style="text;strokeColor=none;fillColor=none;align=left;verticalAlign=top;spacingLeft=4;spacingRight=4;overflow=hidden;rotatable=0;points=[[0,0.5],[1,0.5]];portConstraint=eastwest;whiteSpace=wrap;html=1;" parent="ET7AaDw2ST4JlTZtW3ST-39" vertex="1">
          <mxGeometry y="26" width="160" height="104" as="geometry" />
        </mxCell>
        <mxCell id="ET7AaDw2ST4JlTZtW3ST-41" value="" style="line;strokeWidth=1;fillColor=none;align=left;verticalAlign=middle;spacingTop=-1;spacingLeft=3;spacingRight=3;rotatable=0;labelPosition=right;points=[];portConstraint=eastwest;strokeColor=inherit;" parent="ET7AaDw2ST4JlTZtW3ST-39" vertex="1">
          <mxGeometry y="130" width="160" height="8" as="geometry" />
        </mxCell>
        <mxCell id="ET7AaDw2ST4JlTZtW3ST-42" value="+activar()&lt;div&gt;+desactivar()&lt;/div&gt;&lt;div&gt;+cambiarContrasena()&lt;/div&gt;" style="text;strokeColor=none;fillColor=none;align=left;verticalAlign=top;spacingLeft=4;spacingRight=4;overflow=hidden;rotatable=0;points=[[0,0.5],[1,0.5]];portConstraint=eastwest;whiteSpace=wrap;html=1;" parent="ET7AaDw2ST4JlTZtW3ST-39" vertex="1">
          <mxGeometry y="138" width="160" height="62" as="geometry" />
        </mxCell>
        <mxCell id="ET7AaDw2ST4JlTZtW3ST-49" value="Cliente" style="swimlane;fontStyle=1;align=center;verticalAlign=top;childLayout=stackLayout;horizontal=1;startSize=26;horizontalStack=0;resizeParent=1;resizeParentMax=0;resizeLast=0;collapsible=1;marginBottom=0;whiteSpace=wrap;html=1;" parent="1" vertex="1">
          <mxGeometry x="470" y="320" width="160" height="260" as="geometry">
            <mxRectangle x="730" y="380" width="80" height="30" as="alternateBounds" />
          </mxGeometry>
        </mxCell>
        <mxCell id="ET7AaDw2ST4JlTZtW3ST-50" value="&lt;div&gt;-direccion : string&lt;/div&gt;&lt;div&gt;-fechaCreacion : date&lt;/div&gt;&lt;div&gt;-edad : int&lt;/div&gt;&lt;div&gt;-genero : string&lt;/div&gt;&lt;div&gt;&lt;br&gt;&lt;/div&gt;" style="text;strokeColor=none;fillColor=none;align=left;verticalAlign=top;spacingLeft=4;spacingRight=4;overflow=hidden;rotatable=0;points=[[0,0.5],[1,0.5]];portConstraint=eastwest;whiteSpace=wrap;html=1;" parent="ET7AaDw2ST4JlTZtW3ST-49" vertex="1">
          <mxGeometry y="26" width="160" height="84" as="geometry" />
        </mxCell>
        <mxCell id="ET7AaDw2ST4JlTZtW3ST-51" value="" style="line;strokeWidth=1;fillColor=none;align=left;verticalAlign=middle;spacingTop=-1;spacingLeft=3;spacingRight=3;rotatable=0;labelPosition=right;points=[];portConstraint=eastwest;strokeColor=inherit;" parent="ET7AaDw2ST4JlTZtW3ST-49" vertex="1">
          <mxGeometry y="110" width="160" height="8" as="geometry" />
        </mxCell>
        <mxCell id="ET7AaDw2ST4JlTZtW3ST-52" value="&lt;div&gt;&lt;div&gt;+modificarPerfil()&lt;/div&gt;&lt;/div&gt;&lt;div&gt;+listarMascotas()&lt;/div&gt;&lt;div&gt;+agregarMascota()&lt;/div&gt;&lt;div&gt;+eliminarMascota()&lt;/div&gt;&lt;div&gt;+modificarMascota()&lt;/div&gt;&lt;div&gt;+verHistorialMascota()&lt;/div&gt;&lt;div&gt;+solicitarReserva()&lt;/div&gt;&lt;div&gt;+solicitarServicio()&lt;/div&gt;&lt;div&gt;&lt;br&gt;&lt;/div&gt;" style="text;strokeColor=none;fillColor=none;align=left;verticalAlign=top;spacingLeft=4;spacingRight=4;overflow=hidden;rotatable=0;points=[[0,0.5],[1,0.5]];portConstraint=eastwest;whiteSpace=wrap;html=1;" parent="ET7AaDw2ST4JlTZtW3ST-49" vertex="1">
          <mxGeometry y="118" width="160" height="142" as="geometry" />
        </mxCell>
        <mxCell id="c2qZBL1Hb2ULaYAz-9ZJ-21" style="edgeStyle=orthogonalEdgeStyle;rounded=0;orthogonalLoop=1;jettySize=auto;html=1;exitX=0.25;exitY=0;exitDx=0;exitDy=0;entryX=0;entryY=0.5;entryDx=0;entryDy=0;endArrow=diamondThin;endFill=1;endSize=16;" edge="1" parent="1" source="ET7AaDw2ST4JlTZtW3ST-54" target="ET7AaDw2ST4JlTZtW3ST-52">
          <mxGeometry relative="1" as="geometry" />
        </mxCell>
        <mxCell id="ET7AaDw2ST4JlTZtW3ST-54" value="Mascota" style="swimlane;fontStyle=1;align=center;verticalAlign=top;childLayout=stackLayout;horizontal=1;startSize=26;horizontalStack=0;resizeParent=1;resizeParentMax=0;resizeLast=0;collapsible=1;marginBottom=0;whiteSpace=wrap;html=1;" parent="1" vertex="1">
          <mxGeometry x="360" y="660" width="160" height="300" as="geometry">
            <mxRectangle x="730" y="380" width="80" height="30" as="alternateBounds" />
          </mxGeometry>
        </mxCell>
        <mxCell id="ET7AaDw2ST4JlTZtW3ST-55" value="&lt;div&gt;-idMascota : long&lt;/div&gt;-nombre : string&lt;div&gt;-propietario : string&lt;br&gt;&lt;div&gt;-edad : int&lt;/div&gt;&lt;div&gt;&lt;div&gt;-raza : string&lt;/div&gt;&lt;/div&gt;&lt;div&gt;-sexo : boolean&lt;/div&gt;&lt;div&gt;-pesoKg : int&lt;/div&gt;&lt;div&gt;-ultimaVacunaRabia : date&lt;/div&gt;&lt;div&gt;-ultimaVacunaPolivalente : date&lt;/div&gt;&lt;div&gt;&lt;br&gt;&lt;/div&gt;&lt;/div&gt;" style="text;strokeColor=none;fillColor=none;align=left;verticalAlign=top;spacingLeft=4;spacingRight=4;overflow=hidden;rotatable=0;points=[[0,0.5],[1,0.5]];portConstraint=eastwest;whiteSpace=wrap;html=1;" parent="ET7AaDw2ST4JlTZtW3ST-54" vertex="1">
          <mxGeometry y="26" width="160" height="164" as="geometry" />
        </mxCell>
        <mxCell id="ET7AaDw2ST4JlTZtW3ST-56" value="" style="line;strokeWidth=1;fillColor=none;align=left;verticalAlign=middle;spacingTop=-1;spacingLeft=3;spacingRight=3;rotatable=0;labelPosition=right;points=[];portConstraint=eastwest;strokeColor=inherit;" parent="ET7AaDw2ST4JlTZtW3ST-54" vertex="1">
          <mxGeometry y="190" width="160" height="8" as="geometry" />
        </mxCell>
        <mxCell id="ET7AaDw2ST4JlTZtW3ST-57" value="+vacunaVigenteRabia()&lt;div&gt;+vacunaVigentePoli()&lt;/div&gt;&lt;div&gt;+actualizarDatos()&lt;/div&gt;&lt;div&gt;+reservasActivas()&lt;/div&gt;&lt;div&gt;+serviciosActivos()&lt;br&gt;&lt;div&gt;&lt;br&gt;&lt;/div&gt;&lt;/div&gt;" style="text;strokeColor=none;fillColor=none;align=left;verticalAlign=top;spacingLeft=4;spacingRight=4;overflow=hidden;rotatable=0;points=[[0,0.5],[1,0.5]];portConstraint=eastwest;whiteSpace=wrap;html=1;" parent="ET7AaDw2ST4JlTZtW3ST-54" vertex="1">
          <mxGeometry y="198" width="160" height="102" as="geometry" />
        </mxCell>
        <mxCell id="ET7AaDw2ST4JlTZtW3ST-61" value="&lt;div&gt;Hotel&lt;/div&gt;" style="swimlane;fontStyle=1;align=center;verticalAlign=top;childLayout=stackLayout;horizontal=1;startSize=26;horizontalStack=0;resizeParent=1;resizeParentMax=0;resizeLast=0;collapsible=1;marginBottom=0;whiteSpace=wrap;html=1;" parent="1" vertex="1">
          <mxGeometry x="1180" y="480" width="160" height="288" as="geometry" />
        </mxCell>
        <mxCell id="ET7AaDw2ST4JlTZtW3ST-62" value="-id : long&lt;div&gt;-nombre : string&lt;/div&gt;&lt;div&gt;-emailContacto : string&lt;/div&gt;&lt;div&gt;-telefonoContacto : string&lt;/div&gt;&lt;div&gt;-direccion : string&lt;/div&gt;&lt;div&gt;-horarioAtencion : string&lt;/div&gt;&lt;div&gt;-logoUrl : string&lt;/div&gt;&lt;div&gt;-activo : boolean&lt;/div&gt;" style="text;strokeColor=none;fillColor=none;align=left;verticalAlign=top;spacingLeft=4;spacingRight=4;overflow=hidden;rotatable=0;points=[[0,0.5],[1,0.5]];portConstraint=eastwest;whiteSpace=wrap;html=1;" parent="ET7AaDw2ST4JlTZtW3ST-61" vertex="1">
          <mxGeometry y="26" width="160" height="134" as="geometry" />
        </mxCell>
        <mxCell id="ET7AaDw2ST4JlTZtW3ST-63" value="" style="line;strokeWidth=1;fillColor=none;align=left;verticalAlign=middle;spacingTop=-1;spacingLeft=3;spacingRight=3;rotatable=0;labelPosition=right;points=[];portConstraint=eastwest;strokeColor=inherit;" parent="ET7AaDw2ST4JlTZtW3ST-61" vertex="1">
          <mxGeometry y="160" width="160" height="8" as="geometry" />
        </mxCell>
        <mxCell id="ET7AaDw2ST4JlTZtW3ST-64" value="+actualizarDatos()&lt;div&gt;+activar()&lt;/div&gt;&lt;div&gt;+desactivar()&lt;/div&gt;&lt;div&gt;+agregarHabitacion()&lt;/div&gt;&lt;div&gt;+desactivarHabitacion()&lt;/div&gt;" style="text;strokeColor=none;fillColor=none;align=left;verticalAlign=top;spacingLeft=4;spacingRight=4;overflow=hidden;rotatable=0;points=[[0,0.5],[1,0.5]];portConstraint=eastwest;whiteSpace=wrap;html=1;" parent="ET7AaDw2ST4JlTZtW3ST-61" vertex="1">
          <mxGeometry y="168" width="160" height="120" as="geometry" />
        </mxCell>
        <mxCell id="c2qZBL1Hb2ULaYAz-9ZJ-2" value="&lt;div&gt;Reserva Servicio&lt;/div&gt;" style="swimlane;fontStyle=1;align=center;verticalAlign=top;childLayout=stackLayout;horizontal=1;startSize=26;horizontalStack=0;resizeParent=1;resizeParentMax=0;resizeLast=0;collapsible=1;marginBottom=0;whiteSpace=wrap;html=1;" vertex="1" parent="1">
          <mxGeometry x="710" y="540" width="160" height="178" as="geometry" />
        </mxCell>
        <mxCell id="c2qZBL1Hb2ULaYAz-9ZJ-3" value="-id : long&lt;div&gt;-reserva : long&lt;/div&gt;&lt;div&gt;-servicio : long&lt;/div&gt;&lt;div&gt;-estado : EstadoServReserva {}&lt;/div&gt;" style="text;strokeColor=none;fillColor=none;align=left;verticalAlign=top;spacingLeft=4;spacingRight=4;overflow=hidden;rotatable=0;points=[[0,0.5],[1,0.5]];portConstraint=eastwest;whiteSpace=wrap;html=1;" vertex="1" parent="c2qZBL1Hb2ULaYAz-9ZJ-2">
          <mxGeometry y="26" width="160" height="94" as="geometry" />
        </mxCell>
        <mxCell id="c2qZBL1Hb2ULaYAz-9ZJ-4" value="" style="line;strokeWidth=1;fillColor=none;align=left;verticalAlign=middle;spacingTop=-1;spacingLeft=3;spacingRight=3;rotatable=0;labelPosition=right;points=[];portConstraint=eastwest;strokeColor=inherit;" vertex="1" parent="c2qZBL1Hb2ULaYAz-9ZJ-2">
          <mxGeometry y="120" width="160" height="8" as="geometry" />
        </mxCell>
        <mxCell id="c2qZBL1Hb2ULaYAz-9ZJ-5" value="+subtotal()&lt;div&gt;+cambiarEstado()&lt;/div&gt;" style="text;strokeColor=none;fillColor=none;align=left;verticalAlign=top;spacingLeft=4;spacingRight=4;overflow=hidden;rotatable=0;points=[[0,0.5],[1,0.5]];portConstraint=eastwest;whiteSpace=wrap;html=1;" vertex="1" parent="c2qZBL1Hb2ULaYAz-9ZJ-2">
          <mxGeometry y="128" width="160" height="50" as="geometry" />
        </mxCell>
        <mxCell id="c2qZBL1Hb2ULaYAz-9ZJ-18" value="" style="endArrow=block;endSize=16;endFill=0;html=1;rounded=0;" edge="1" parent="1">
          <mxGeometry width="160" relative="1" as="geometry">
            <mxPoint x="630" y="400" as="sourcePoint" />
            <mxPoint x="710" y="400" as="targetPoint" />
          </mxGeometry>
        </mxCell>
        <mxCell id="c2qZBL1Hb2ULaYAz-9ZJ-19" value="" style="endArrow=block;endSize=16;endFill=0;html=1;rounded=0;exitX=-0.012;exitY=0.087;exitDx=0;exitDy=0;exitPerimeter=0;entryX=1.006;entryY=0.856;entryDx=0;entryDy=0;entryPerimeter=0;" edge="1" parent="1" source="ET7AaDw2ST4JlTZtW3ST-12" target="ET7AaDw2ST4JlTZtW3ST-40">
          <mxGeometry width="160" relative="1" as="geometry">
            <mxPoint x="940" y="490" as="sourcePoint" />
            <mxPoint x="1020" y="490" as="targetPoint" />
          </mxGeometry>
        </mxCell>
        <mxCell id="c2qZBL1Hb2ULaYAz-9ZJ-20" style="edgeStyle=orthogonalEdgeStyle;rounded=0;orthogonalLoop=1;jettySize=auto;html=1;entryX=0.5;entryY=0;entryDx=0;entryDy=0;endArrow=none;endFill=0;" edge="1" parent="1" source="ET7AaDw2ST4JlTZtW3ST-12" target="ET7AaDw2ST4JlTZtW3ST-61">
          <mxGeometry relative="1" as="geometry" />
        </mxCell>
        <mxCell id="c2qZBL1Hb2ULaYAz-9ZJ-23" value="0..*" style="text;html=1;align=center;verticalAlign=middle;resizable=0;points=[];autosize=1;strokeColor=none;fillColor=none;" vertex="1" parent="1">
          <mxGeometry x="360" y="630" width="40" height="30" as="geometry" />
        </mxCell>
        <mxCell id="c2qZBL1Hb2ULaYAz-9ZJ-24" value="1" style="text;html=1;align=center;verticalAlign=middle;resizable=0;points=[];autosize=1;strokeColor=none;fillColor=none;" vertex="1" parent="1">
          <mxGeometry x="425" y="480" width="30" height="30" as="geometry" />
        </mxCell>
        <mxCell id="c2qZBL1Hb2ULaYAz-9ZJ-26" style="edgeStyle=orthogonalEdgeStyle;rounded=0;orthogonalLoop=1;jettySize=auto;html=1;exitX=0;exitY=0.5;exitDx=0;exitDy=0;entryX=0.675;entryY=0.993;entryDx=0;entryDy=0;entryPerimeter=0;endArrow=diamondThin;endFill=1;endSize=16;" edge="1" parent="1" source="c2qZBL1Hb2ULaYAz-9ZJ-3" target="ET7AaDw2ST4JlTZtW3ST-52">
          <mxGeometry relative="1" as="geometry" />
        </mxCell>
        <mxCell id="c2qZBL1Hb2ULaYAz-9ZJ-27" value="1" style="text;html=1;align=center;verticalAlign=middle;resizable=0;points=[];autosize=1;strokeColor=none;fillColor=none;" vertex="1" parent="1">
          <mxGeometry x="550" y="590" width="30" height="30" as="geometry" />
        </mxCell>
        <mxCell id="c2qZBL1Hb2ULaYAz-9ZJ-28" value="0...*" style="text;html=1;align=center;verticalAlign=middle;resizable=0;points=[];autosize=1;strokeColor=none;fillColor=none;" vertex="1" parent="1">
          <mxGeometry x="670" y="609" width="40" height="30" as="geometry" />
        </mxCell>
        <mxCell id="c2qZBL1Hb2ULaYAz-9ZJ-29" style="edgeStyle=orthogonalEdgeStyle;rounded=0;orthogonalLoop=1;jettySize=auto;html=1;entryX=-0.006;entryY=0.163;entryDx=0;entryDy=0;entryPerimeter=0;endArrow=none;endFill=0;" edge="1" parent="1" source="c2qZBL1Hb2ULaYAz-9ZJ-3" target="ET7AaDw2ST4JlTZtW3ST-28">
          <mxGeometry relative="1" as="geometry" />
        </mxCell>
        <mxCell id="c2qZBL1Hb2ULaYAz-9ZJ-30" style="edgeStyle=orthogonalEdgeStyle;rounded=0;orthogonalLoop=1;jettySize=auto;html=1;entryX=0.15;entryY=-0.008;entryDx=0;entryDy=0;entryPerimeter=0;endArrow=none;endFill=0;" edge="1" parent="1" source="c2qZBL1Hb2ULaYAz-9ZJ-5" target="ET7AaDw2ST4JlTZtW3ST-35">
          <mxGeometry relative="1" as="geometry" />
        </mxCell>
        <mxCell id="c2qZBL1Hb2ULaYAz-9ZJ-31" style="edgeStyle=orthogonalEdgeStyle;rounded=0;orthogonalLoop=1;jettySize=auto;html=1;entryX=1.025;entryY=0.702;entryDx=0;entryDy=0;entryPerimeter=0;endArrow=diamondThin;endFill=1;endSize=14;" edge="1" parent="1" source="ET7AaDw2ST4JlTZtW3ST-61" target="ET7AaDw2ST4JlTZtW3ST-14">
          <mxGeometry relative="1" as="geometry" />
        </mxCell>
        <mxCell id="c2qZBL1Hb2ULaYAz-9ZJ-32" value="1" style="text;html=1;align=center;verticalAlign=middle;resizable=0;points=[];autosize=1;strokeColor=none;fillColor=none;" vertex="1" parent="1">
          <mxGeometry x="1255" y="768" width="30" height="30" as="geometry" />
        </mxCell>
        <mxCell id="c2qZBL1Hb2ULaYAz-9ZJ-33" value="0...*" style="text;html=1;align=center;verticalAlign=middle;resizable=0;points=[];autosize=1;strokeColor=none;fillColor=none;" vertex="1" parent="1">
          <mxGeometry x="1140" y="878" width="40" height="30" as="geometry" />
        </mxCell>
        <mxCell id="c2qZBL1Hb2ULaYAz-9ZJ-34" style="edgeStyle=orthogonalEdgeStyle;rounded=0;orthogonalLoop=1;jettySize=auto;html=1;entryX=0;entryY=0.643;entryDx=0;entryDy=0;entryPerimeter=0;endArrow=none;endFill=0;" edge="1" parent="1" source="ET7AaDw2ST4JlTZtW3ST-35" target="ET7AaDw2ST4JlTZtW3ST-14">
          <mxGeometry relative="1" as="geometry" />
        </mxCell>
        <mxCell id="c2qZBL1Hb2ULaYAz-9ZJ-35" value="1" style="text;html=1;align=center;verticalAlign=middle;resizable=0;points=[];autosize=1;strokeColor=none;fillColor=none;" vertex="1" parent="1">
          <mxGeometry x="795" y="888" width="30" height="30" as="geometry" />
        </mxCell>
        <mxCell id="c2qZBL1Hb2ULaYAz-9ZJ-36" value="1" style="text;html=1;align=center;verticalAlign=middle;resizable=0;points=[];autosize=1;strokeColor=none;fillColor=none;" vertex="1" parent="1">
          <mxGeometry x="955" y="888" width="30" height="30" as="geometry" />
        </mxCell>
      </root>
    </mxGraphModel>
  </diagram>
</mxfile>
